<mxfile host="app.diagrams.net" agent="Mozilla/5.0 (Windows NT 10.0; Win64; x64) AppleWebKit/537.36 (KHTML, like Gecko) Chrome/136.0.0.0 Safari/537.36" version="27.0.6">
  <diagram id="07fea595-8f29-1299-0266-81d95cde20df" name="Page-1">
    <mxGraphModel dx="1678" dy="881" grid="1" gridSize="10" guides="1" tooltips="1" connect="1" arrows="1" fold="1" page="1" pageScale="1" pageWidth="810" pageHeight="585" background="#ffffff" math="0" shadow="0">
      <root>
        <mxCell id="0" />
        <mxCell id="1" parent="0" />
        <mxCell id="uIb42gDMteSMRHeMFqmk-11" value="" style="rounded=0;whiteSpace=wrap;html=1;fillColor=#CCFFCC;strokeColor=none;opacity=50;" parent="1" vertex="1">
          <mxGeometry x="640" width="160" height="1170" as="geometry" />
        </mxCell>
        <mxCell id="FATbZ32vNFB9-89yqttI-194" value="" style="rounded=0;whiteSpace=wrap;html=1;fillColor=#CCFFCC;strokeColor=none;opacity=50;" parent="1" vertex="1">
          <mxGeometry width="160" height="1170" as="geometry" />
        </mxCell>
        <mxCell id="FATbZ32vNFB9-89yqttI-195" value="" style="rounded=0;whiteSpace=wrap;html=1;fillColor=#CCFFCC;strokeColor=none;opacity=50;" parent="1" vertex="1">
          <mxGeometry x="320" width="160" height="1170" as="geometry" />
        </mxCell>
        <mxCell id="FATbZ32vNFB9-89yqttI-196" value="&lt;font style=&quot;color: rgb(255, 255, 255);&quot;&gt;&lt;b&gt;SH&lt;/b&gt;&lt;/font&gt;" style="rounded=0;whiteSpace=wrap;html=1;strokeColor=none;fillColor=#003300;" parent="1" vertex="1">
          <mxGeometry width="160" height="20" as="geometry" />
        </mxCell>
        <mxCell id="FATbZ32vNFB9-89yqttI-197" value="&lt;font style=&quot;color: rgb(255, 255, 255);&quot;&gt;&lt;b&gt;PO / IA&lt;/b&gt;&lt;/font&gt;" style="rounded=0;whiteSpace=wrap;html=1;strokeColor=none;fillColor=#003300;" parent="1" vertex="1">
          <mxGeometry x="160" width="160" height="20" as="geometry" />
        </mxCell>
        <mxCell id="FATbZ32vNFB9-89yqttI-198" value="&lt;font style=&quot;color: rgb(255, 255, 255);&quot;&gt;&lt;b&gt;DEVs&lt;/b&gt;&lt;/font&gt;" style="rounded=0;whiteSpace=wrap;html=1;strokeColor=none;fillColor=#003300;" parent="1" vertex="1">
          <mxGeometry x="320" width="160" height="20" as="geometry" />
        </mxCell>
        <mxCell id="FATbZ32vNFB9-89yqttI-199" value="&lt;font style=&quot;color: rgb(255, 255, 255);&quot;&gt;&lt;b&gt;TEAMs&lt;/b&gt;&lt;/font&gt;" style="rounded=0;whiteSpace=wrap;html=1;strokeColor=none;fillColor=#003300;" parent="1" vertex="1">
          <mxGeometry x="480" width="160" height="20" as="geometry" />
        </mxCell>
        <mxCell id="FATbZ32vNFB9-89yqttI-215" style="edgeStyle=orthogonalEdgeStyle;rounded=0;orthogonalLoop=1;jettySize=auto;html=1;entryX=0;entryY=0.5;entryDx=0;entryDy=0;strokeWidth=3;strokeColor=#006600;endArrow=block;endFill=1;" parent="1" source="FATbZ32vNFB9-89yqttI-200" target="FATbZ32vNFB9-89yqttI-207" edge="1">
          <mxGeometry relative="1" as="geometry" />
        </mxCell>
        <mxCell id="FATbZ32vNFB9-89yqttI-200" value="&lt;font face=&quot;Arial, sans-serif&quot;&gt;&lt;span style=&quot;white-space-collapse: preserve;&quot;&gt;Wensen &lt;/span&gt;&lt;/font&gt;&lt;div&gt;&lt;font face=&quot;Arial, sans-serif&quot;&gt;&lt;span style=&quot;white-space-collapse: preserve;&quot;&gt;definiëren&lt;/span&gt;&lt;/font&gt;&lt;/div&gt;" style="whiteSpace=wrap;shadow=0;fontColor=#FFFFFF;fontFamily=Helvetica;fontStyle=0;html=1;fontSize=12;plain-purple;strokeColor=none;fillColor=#006600;gradientColor=none;spacing=6;verticalAlign=middle;" parent="1" vertex="1">
          <mxGeometry x="21.51999999999999" y="120.5" width="118.97753679318357" height="60" as="geometry" />
        </mxCell>
        <mxCell id="FATbZ32vNFB9-89yqttI-219" style="edgeStyle=orthogonalEdgeStyle;rounded=1;orthogonalLoop=1;jettySize=auto;html=1;entryX=0.5;entryY=0;entryDx=0;entryDy=0;strokeWidth=3;strokeColor=#006600;flowAnimation=0;curved=0;endArrow=block;endFill=1;" parent="1" source="FATbZ32vNFB9-89yqttI-201" target="FATbZ32vNFB9-89yqttI-202" edge="1">
          <mxGeometry relative="1" as="geometry" />
        </mxCell>
        <mxCell id="FATbZ32vNFB9-89yqttI-201" value="Backlog items verduidelijken" style="whiteSpace=wrap;strokeColor=none;fillColor=#006600;shadow=0;fontColor=#FFFFFF;fontFamily=Helvetica;fontStyle=0;html=1;fontSize=12;spacing=6;verticalAlign=middle;fillStyle=auto;" parent="1" vertex="1">
          <mxGeometry x="180" y="40" width="276.77" height="60" as="geometry" />
        </mxCell>
        <mxCell id="FATbZ32vNFB9-89yqttI-220" style="edgeStyle=orthogonalEdgeStyle;rounded=0;orthogonalLoop=1;jettySize=auto;html=1;entryX=1;entryY=0.5;entryDx=0;entryDy=0;strokeWidth=3;strokeColor=#006600;dashed=1;dashPattern=1 1;endArrow=block;endFill=1;" parent="1" source="FATbZ32vNFB9-89yqttI-202" target="FATbZ32vNFB9-89yqttI-209" edge="1">
          <mxGeometry relative="1" as="geometry" />
        </mxCell>
        <mxCell id="FATbZ32vNFB9-89yqttI-222" style="edgeStyle=orthogonalEdgeStyle;rounded=1;orthogonalLoop=1;jettySize=auto;html=1;exitX=0.5;exitY=1;exitDx=0;exitDy=0;entryX=1;entryY=0.5;entryDx=0;entryDy=0;strokeWidth=3;strokeColor=#006600;dashed=1;curved=0;endArrow=block;endFill=1;dashPattern=1 1;" parent="1" source="FATbZ32vNFB9-89yqttI-202" target="FATbZ32vNFB9-89yqttI-208" edge="1">
          <mxGeometry relative="1" as="geometry" />
        </mxCell>
        <mxCell id="FATbZ32vNFB9-89yqttI-202" value="Backlog item &#xa;duidelijk?" style="rhombus;fillColor=#FF8000;strokeColor=none;fontColor=#FFFFFF;" parent="1" vertex="1">
          <mxGeometry x="338.7934314484896" y="199.5" width="118.97753679318357" height="60" as="geometry" />
        </mxCell>
        <mxCell id="FATbZ32vNFB9-89yqttI-203" value="Ja" style="rounded=0;whiteSpace=wrap;html=1;fillColor=#FF8000;fontColor=#FFFFFF;strokeColor=none;" parent="1" vertex="1">
          <mxGeometry x="378.4592254066615" y="300" width="39.65917893106119" height="20" as="geometry" />
        </mxCell>
        <mxCell id="FATbZ32vNFB9-89yqttI-227" style="edgeStyle=orthogonalEdgeStyle;rounded=1;orthogonalLoop=1;jettySize=auto;html=1;exitX=0;exitY=0.5;exitDx=0;exitDy=0;entryX=0.25;entryY=0;entryDx=0;entryDy=0;strokeWidth=3;strokeColor=#006600;endArrow=block;endFill=1;curved=0;" parent="1" source="FATbZ32vNFB9-89yqttI-205" target="FATbZ32vNFB9-89yqttI-206" edge="1">
          <mxGeometry relative="1" as="geometry" />
        </mxCell>
        <mxCell id="FATbZ32vNFB9-89yqttI-205" value="Uitvoeren geplande werkzaamheden" style="whiteSpace=wrap;strokeColor=none;fillColor=#006600;shadow=0;fontColor=#FFFFFF;fontFamily=Helvetica;fontStyle=0;html=1;fontSize=12;spacing=6;verticalAlign=middle;fillStyle=auto;" parent="1" vertex="1">
          <mxGeometry x="338.3034314484896" y="760" width="118.97753679318357" height="57.12" as="geometry" />
        </mxCell>
        <mxCell id="FATbZ32vNFB9-89yqttI-232" style="edgeStyle=orthogonalEdgeStyle;rounded=1;orthogonalLoop=1;jettySize=auto;html=1;entryX=0.5;entryY=0;entryDx=0;entryDy=0;strokeWidth=3;strokeColor=#006600;endArrow=block;endFill=1;curved=0;" parent="1" source="FATbZ32vNFB9-89yqttI-206" target="FATbZ32vNFB9-89yqttI-230" edge="1">
          <mxGeometry relative="1" as="geometry" />
        </mxCell>
        <mxCell id="FATbZ32vNFB9-89yqttI-206" value="Gezamenlijk presenteren en reviewen van uitgevoerde werk" style="whiteSpace=wrap;strokeColor=none;fillColor=#FFFF33;shadow=0;fontColor=#000000;fontFamily=Helvetica;fontStyle=0;html=1;fontSize=12;spacing=6;verticalAlign=middle;fillStyle=auto;" parent="1" vertex="1">
          <mxGeometry x="21.52" y="837.62" width="598.48" height="59.5" as="geometry" />
        </mxCell>
        <mxCell id="FATbZ32vNFB9-89yqttI-216" style="edgeStyle=orthogonalEdgeStyle;rounded=0;orthogonalLoop=1;jettySize=auto;html=1;exitX=0.5;exitY=1;exitDx=0;exitDy=0;entryX=0.5;entryY=0;entryDx=0;entryDy=0;strokeWidth=3;strokeColor=#006600;endArrow=block;endFill=1;" parent="1" source="FATbZ32vNFB9-89yqttI-207" target="FATbZ32vNFB9-89yqttI-209" edge="1">
          <mxGeometry relative="1" as="geometry" />
        </mxCell>
        <mxCell id="FATbZ32vNFB9-89yqttI-207" value="&lt;span id=&quot;docs-internal-guid-4acb14f2-7fff-6d94-5c89-45a00911f3d4&quot;&gt;&lt;span style=&quot;font-family: Arial, sans-serif; background-color: transparent; font-variant-numeric: normal; font-variant-east-asian: normal; font-variant-alternates: normal; font-variant-position: normal; font-variant-emoji: normal; vertical-align: baseline; white-space-collapse: preserve;&quot;&gt;&lt;font&gt;Backlog items aanmaken&lt;br&gt;&lt;/font&gt;&lt;/span&gt;&lt;/span&gt;" style="whiteSpace=wrap;shadow=0;fontColor=#FFFFFF;fontFamily=Helvetica;fontStyle=0;html=1;fontSize=12;plain-purple;strokeColor=none;fillColor=#006600;gradientColor=none;spacing=6;verticalAlign=middle;" parent="1" vertex="1">
          <mxGeometry x="180.15671572424483" y="120" width="118.97753679318357" height="60" as="geometry" />
        </mxCell>
        <mxCell id="R30zbiC753Ro3uyPxgOw-21" style="edgeStyle=orthogonalEdgeStyle;rounded=1;orthogonalLoop=1;jettySize=auto;html=1;exitX=0;exitY=0.5;exitDx=0;exitDy=0;entryX=0;entryY=0.5;entryDx=0;entryDy=0;curved=0;strokeColor=#006600;strokeWidth=3;endArrow=block;endFill=1;" parent="1" source="FATbZ32vNFB9-89yqttI-208" target="zOOwrNDB9zdHeiTFcrTF-1" edge="1">
          <mxGeometry relative="1" as="geometry" />
        </mxCell>
        <mxCell id="FATbZ32vNFB9-89yqttI-208" value="Backlog Item" style="shape=document;whiteSpace=wrap;verticalAlign=middle;strokeColor=none;fillColor=#0000CC;shadow=0;fontColor=#FFFFFF;fontFamily=Helvetica;fontStyle=0;html=1;fontSize=12;spacing=6;spacingBottom=22;" parent="1" vertex="1">
          <mxGeometry x="180.15671572424483" y="280" width="118.97753679318357" height="60" as="geometry" />
        </mxCell>
        <mxCell id="FATbZ32vNFB9-89yqttI-217" style="edgeStyle=orthogonalEdgeStyle;rounded=0;orthogonalLoop=1;jettySize=auto;html=1;exitX=0.5;exitY=1;exitDx=0;exitDy=0;entryX=0.5;entryY=0;entryDx=0;entryDy=0;strokeWidth=3;strokeColor=#006600;endArrow=block;endFill=1;" parent="1" source="FATbZ32vNFB9-89yqttI-209" target="FATbZ32vNFB9-89yqttI-208" edge="1">
          <mxGeometry relative="1" as="geometry" />
        </mxCell>
        <mxCell id="FATbZ32vNFB9-89yqttI-209" value="Backlog items aanvullen" style="whiteSpace=wrap;shadow=0;fontColor=#FFFFFF;fontFamily=Helvetica;fontStyle=0;html=1;fontSize=12;plain-purple;strokeColor=none;fillColor=#006600;gradientColor=none;spacing=6;verticalAlign=middle;" parent="1" vertex="1">
          <mxGeometry x="180.15671572424483" y="200" width="118.97753679318357" height="60" as="geometry" />
        </mxCell>
        <mxCell id="zOOwrNDB9zdHeiTFcrTF-4" style="edgeStyle=orthogonalEdgeStyle;rounded=1;orthogonalLoop=1;jettySize=auto;html=1;entryX=0;entryY=0.25;entryDx=0;entryDy=0;exitX=0;exitY=0.75;exitDx=0;exitDy=0;strokeWidth=3;curved=0;strokeColor=#006600;endArrow=block;endFill=1;" edge="1" parent="1" source="FATbZ32vNFB9-89yqttI-210" target="zOOwrNDB9zdHeiTFcrTF-3">
          <mxGeometry relative="1" as="geometry" />
        </mxCell>
        <mxCell id="zOOwrNDB9zdHeiTFcrTF-8" style="edgeStyle=orthogonalEdgeStyle;rounded=1;orthogonalLoop=1;jettySize=auto;html=1;exitX=0;exitY=1;exitDx=0;exitDy=0;entryX=0;entryY=0.25;entryDx=0;entryDy=0;strokeWidth=3;dashed=1;dashPattern=1 1;curved=0;strokeColor=#006600;endArrow=block;endFill=1;" edge="1" parent="1" source="zOOwrNDB9zdHeiTFcrTF-6" target="FATbZ32vNFB9-89yqttI-210">
          <mxGeometry relative="1" as="geometry">
            <Array as="points">
              <mxPoint x="120" y="645" />
              <mxPoint x="120" y="455" />
            </Array>
          </mxGeometry>
        </mxCell>
        <mxCell id="FATbZ32vNFB9-89yqttI-210" value="Teamoverstijgende planning maken" style="whiteSpace=wrap;strokeColor=none;fillColor=#FFFF33;shadow=0;fontColor=#000000;fontFamily=Helvetica;fontStyle=0;html=1;fontSize=12;spacing=6;verticalAlign=middle;fillStyle=auto;" parent="1" vertex="1">
          <mxGeometry x="340" y="440.5" width="280" height="60" as="geometry" />
        </mxCell>
        <mxCell id="FATbZ32vNFB9-89yqttI-212" value="Faciliteren" style="whiteSpace=wrap;shadow=0;fontColor=#FFFFFF;fontFamily=Helvetica;fontStyle=0;html=1;fontSize=12;plain-purple;strokeColor=none;fillColor=#006600;gradientColor=none;spacing=6;verticalAlign=middle;" parent="1" vertex="1">
          <mxGeometry x="659.7101471727344" y="39.5" width="118.97753679318359" height="60.5" as="geometry" />
        </mxCell>
        <mxCell id="FATbZ32vNFB9-89yqttI-213" value="Faciliteren" style="whiteSpace=wrap;shadow=0;fontColor=#FFFFFF;fontFamily=Helvetica;fontStyle=0;html=1;fontSize=12;plain-purple;strokeColor=none;fillColor=#006600;gradientColor=none;spacing=6;verticalAlign=middle;" parent="1" vertex="1">
          <mxGeometry x="658.0201471727344" y="440" width="118.97753679318359" height="60.5" as="geometry" />
        </mxCell>
        <mxCell id="FATbZ32vNFB9-89yqttI-214" value="Faciliteren" style="whiteSpace=wrap;shadow=0;fontColor=#FFFFFF;fontFamily=Helvetica;fontStyle=0;html=1;fontSize=12;plain-purple;strokeColor=none;fillColor=#006600;gradientColor=none;spacing=6;verticalAlign=middle;" parent="1" vertex="1">
          <mxGeometry x="658.74" y="837.62" width="118.98" height="59.5" as="geometry" />
        </mxCell>
        <mxCell id="FATbZ32vNFB9-89yqttI-238" style="edgeStyle=orthogonalEdgeStyle;rounded=1;orthogonalLoop=1;jettySize=auto;html=1;exitX=1;exitY=0.5;exitDx=0;exitDy=0;entryX=1;entryY=0.5;entryDx=0;entryDy=0;strokeColor=#006600;strokeWidth=3;endArrow=block;endFill=1;curved=0;" parent="1" source="FATbZ32vNFB9-89yqttI-230" target="FATbZ32vNFB9-89yqttI-233" edge="1">
          <mxGeometry relative="1" as="geometry" />
        </mxCell>
        <mxCell id="FATbZ32vNFB9-89yqttI-230" value="Reflecteren op samenwerking,&amp;nbsp;&lt;div&gt;verricht&amp;nbsp;&lt;span style=&quot;background-color: transparent; color: light-dark(rgb(255, 255, 255), rgb(18, 18, 18));&quot;&gt;werk en processen&lt;/span&gt;&lt;/div&gt;" style="whiteSpace=wrap;strokeColor=none;fillColor=#006600;shadow=0;fontColor=#FFFFFF;fontFamily=Helvetica;fontStyle=0;html=1;fontSize=12;spacing=6;verticalAlign=middle;fillStyle=auto;" parent="1" vertex="1">
          <mxGeometry x="180.16" y="917.12" width="279.84" height="60" as="geometry" />
        </mxCell>
        <mxCell id="FATbZ32vNFB9-89yqttI-239" style="edgeStyle=orthogonalEdgeStyle;rounded=0;orthogonalLoop=1;jettySize=auto;html=1;entryX=1;entryY=0.5;entryDx=0;entryDy=0;strokeWidth=3;dashed=1;strokeColor=#006600;dashPattern=1 1;endArrow=block;endFill=1;" parent="1" source="FATbZ32vNFB9-89yqttI-233" target="FATbZ32vNFB9-89yqttI-236" edge="1">
          <mxGeometry relative="1" as="geometry" />
        </mxCell>
        <mxCell id="FATbZ32vNFB9-89yqttI-246" style="edgeStyle=orthogonalEdgeStyle;rounded=0;orthogonalLoop=1;jettySize=auto;html=1;entryX=0.5;entryY=0;entryDx=0;entryDy=0;strokeWidth=3;dashed=1;dashPattern=1 1;strokeColor=#006600;endArrow=block;endFill=1;" parent="1" source="FATbZ32vNFB9-89yqttI-233" target="R30zbiC753Ro3uyPxgOw-13" edge="1">
          <mxGeometry relative="1" as="geometry">
            <mxPoint x="715.208768396592" y="1087.12" as="targetPoint" />
          </mxGeometry>
        </mxCell>
        <mxCell id="FATbZ32vNFB9-89yqttI-233" value="Acties nodig?" style="rhombus;fillColor=#FF8000;strokeColor=none;fontColor=#FFFFFF;" parent="1" vertex="1">
          <mxGeometry x="653.42" y="997.1199999999999" width="123.58" height="60" as="geometry" />
        </mxCell>
        <mxCell id="FATbZ32vNFB9-89yqttI-255" style="edgeStyle=orthogonalEdgeStyle;rounded=0;orthogonalLoop=1;jettySize=auto;html=1;entryX=0.5;entryY=0;entryDx=0;entryDy=0;strokeWidth=3;strokeColor=#006600;endArrow=block;endFill=1;" parent="1" source="FATbZ32vNFB9-89yqttI-236" target="FATbZ32vNFB9-89yqttI-252" edge="1">
          <mxGeometry relative="1" as="geometry" />
        </mxCell>
        <mxCell id="FATbZ32vNFB9-89yqttI-236" value="Actiepunt" style="shape=document;whiteSpace=wrap;verticalAlign=middle;strokeColor=none;fillColor=#0000CC;shadow=0;fontColor=#FFFFFF;fontFamily=Helvetica;fontStyle=0;html=1;fontSize=12;spacing=6;spacingBottom=22;" parent="1" vertex="1">
          <mxGeometry x="180.02" y="997.1199999999999" width="279.49" height="60" as="geometry" />
        </mxCell>
        <mxCell id="FATbZ32vNFB9-89yqttI-242" value="Ja" style="rounded=0;whiteSpace=wrap;html=1;fillColor=#FF8000;fontColor=#FFFFFF;strokeColor=none;fontSize=12;" parent="1" vertex="1">
          <mxGeometry x="459.02" y="997.1199999999999" width="39.65917893106119" height="20" as="geometry" />
        </mxCell>
        <mxCell id="FATbZ32vNFB9-89yqttI-204" value="Nee" style="rounded=0;whiteSpace=wrap;html=1;fillColor=#FF8000;fontColor=#FFFFFF;strokeColor=none;" parent="1" vertex="1">
          <mxGeometry x="298.8392254066615" y="200" width="39.65917893106119" height="20" as="geometry" />
        </mxCell>
        <mxCell id="FATbZ32vNFB9-89yqttI-256" style="edgeStyle=orthogonalEdgeStyle;rounded=0;orthogonalLoop=1;jettySize=auto;html=1;entryX=0;entryY=0.5;entryDx=0;entryDy=0;strokeWidth=3;strokeColor=#006600;endArrow=block;endFill=1;" parent="1" source="FATbZ32vNFB9-89yqttI-252" target="R30zbiC753Ro3uyPxgOw-13" edge="1">
          <mxGeometry relative="1" as="geometry">
            <mxPoint x="498.74" y="1117.12" as="targetPoint" />
          </mxGeometry>
        </mxCell>
        <mxCell id="FATbZ32vNFB9-89yqttI-252" value="Actiepunt opvolgen" style="whiteSpace=wrap;strokeColor=none;fillColor=#006600;shadow=0;fontColor=#FFFFFF;fontFamily=Helvetica;fontStyle=0;html=1;fontSize=12;spacing=6;verticalAlign=middle;fillStyle=auto;" parent="1" vertex="1">
          <mxGeometry x="180.16" y="1087.12" width="279.86" height="60" as="geometry" />
        </mxCell>
        <mxCell id="R30zbiC753Ro3uyPxgOw-3" value="" style="endArrow=none;startArrow=block;html=1;rounded=0;exitX=1;exitY=0.5;exitDx=0;exitDy=0;entryX=0;entryY=0.5;entryDx=0;entryDy=0;strokeWidth=3;strokeColor=#006600;dashed=1;dashPattern=1 1;startFill=1;endFill=1;" parent="1" source="FATbZ32vNFB9-89yqttI-201" target="FATbZ32vNFB9-89yqttI-212" edge="1">
          <mxGeometry width="50" height="50" relative="1" as="geometry">
            <mxPoint x="456.77" y="160.0000000000001" as="sourcePoint" />
            <mxPoint x="496.43014717273445" y="160.75" as="targetPoint" />
          </mxGeometry>
        </mxCell>
        <mxCell id="R30zbiC753Ro3uyPxgOw-6" value="" style="endArrow=none;startArrow=block;html=1;rounded=0;exitX=1;exitY=0.5;exitDx=0;exitDy=0;entryX=0;entryY=0.5;entryDx=0;entryDy=0;strokeWidth=3;strokeColor=#006600;dashed=1;dashPattern=1 1;endFill=1;startFill=1;" parent="1" source="FATbZ32vNFB9-89yqttI-210" target="FATbZ32vNFB9-89yqttI-213" edge="1">
          <mxGeometry width="50" height="50" relative="1" as="geometry">
            <mxPoint x="578.04" y="560" as="sourcePoint" />
            <mxPoint x="628.04" y="510" as="targetPoint" />
          </mxGeometry>
        </mxCell>
        <mxCell id="R30zbiC753Ro3uyPxgOw-8" value="" style="endArrow=none;startArrow=block;html=1;rounded=0;exitX=1;exitY=0.5;exitDx=0;exitDy=0;entryX=0;entryY=0.5;entryDx=0;entryDy=0;strokeWidth=3;dashed=1;dashPattern=1 1;strokeColor=#006600;endFill=1;startFill=1;" parent="1" source="FATbZ32vNFB9-89yqttI-206" target="FATbZ32vNFB9-89yqttI-214" edge="1">
          <mxGeometry width="50" height="50" relative="1" as="geometry">
            <mxPoint x="580.53" y="797.12" as="sourcePoint" />
            <mxPoint x="630.53" y="747.12" as="targetPoint" />
          </mxGeometry>
        </mxCell>
        <mxCell id="R30zbiC753Ro3uyPxgOw-15" style="edgeStyle=orthogonalEdgeStyle;rounded=1;orthogonalLoop=1;jettySize=auto;html=1;entryX=0;entryY=0.5;entryDx=0;entryDy=0;curved=0;strokeColor=#006600;strokeWidth=3;endArrow=block;endFill=1;" parent="1" source="R30zbiC753Ro3uyPxgOw-10" target="FATbZ32vNFB9-89yqttI-201" edge="1">
          <mxGeometry relative="1" as="geometry" />
        </mxCell>
        <mxCell id="R30zbiC753Ro3uyPxgOw-25" style="edgeStyle=orthogonalEdgeStyle;rounded=1;orthogonalLoop=1;jettySize=auto;html=1;exitX=0.5;exitY=1;exitDx=0;exitDy=0;entryX=0.5;entryY=0;entryDx=0;entryDy=0;strokeColor=#006600;endArrow=block;endFill=1;strokeWidth=3;curved=0;" parent="1" source="R30zbiC753Ro3uyPxgOw-10" target="FATbZ32vNFB9-89yqttI-200" edge="1">
          <mxGeometry relative="1" as="geometry" />
        </mxCell>
        <mxCell id="R30zbiC753Ro3uyPxgOw-10" value="&lt;b&gt;START&lt;/b&gt;" style="ellipse;whiteSpace=wrap;html=1;aspect=fixed;fillColor=#660033;fontColor=#FFFFFF;strokeColor=none;" parent="1" vertex="1">
          <mxGeometry x="50" y="40.5" width="59.5" height="59.5" as="geometry" />
        </mxCell>
        <mxCell id="R30zbiC753Ro3uyPxgOw-13" value="&lt;b&gt;EINDE&lt;/b&gt;" style="ellipse;whiteSpace=wrap;html=1;strokeColor=none;fillColor=#660033;fontColor=#FFFFFF;" parent="1" vertex="1">
          <mxGeometry x="684.32" y="1087.12" width="61.78" height="60" as="geometry" />
        </mxCell>
        <mxCell id="FATbZ32vNFB9-89yqttI-247" value="Nee" style="rounded=0;whiteSpace=wrap;html=1;fillColor=#FF8000;fontColor=#FFFFFF;strokeColor=none;" parent="1" vertex="1">
          <mxGeometry x="695.38" y="1086.12" width="39.65917893106119" height="20" as="geometry" />
        </mxCell>
        <mxCell id="R30zbiC753Ro3uyPxgOw-28" style="edgeStyle=orthogonalEdgeStyle;rounded=0;orthogonalLoop=1;jettySize=auto;html=1;entryX=0.5;entryY=0;entryDx=0;entryDy=0;strokeWidth=3;strokeColor=#006600;endArrow=block;endFill=1;" parent="1" source="R30zbiC753Ro3uyPxgOw-26" target="R30zbiC753Ro3uyPxgOw-27" edge="1">
          <mxGeometry relative="1" as="geometry" />
        </mxCell>
        <mxCell id="R30zbiC753Ro3uyPxgOw-26" value="Dagelijks werk plannen" style="whiteSpace=wrap;strokeColor=none;fillColor=#006600;shadow=0;fontColor=#FFFFFF;fontFamily=Helvetica;fontStyle=0;html=1;fontSize=12;spacing=6;verticalAlign=middle;fillStyle=auto;" parent="1" vertex="1">
          <mxGeometry x="337.82" y="600" width="118.97753679318357" height="57.12" as="geometry" />
        </mxCell>
        <mxCell id="R30zbiC753Ro3uyPxgOw-29" style="edgeStyle=orthogonalEdgeStyle;rounded=0;orthogonalLoop=1;jettySize=auto;html=1;exitX=0.5;exitY=1;exitDx=0;exitDy=0;entryX=0.5;entryY=0;entryDx=0;entryDy=0;strokeWidth=3;strokeColor=#006600;dashed=1;dashPattern=1 1;" parent="1" source="R30zbiC753Ro3uyPxgOw-27" target="FATbZ32vNFB9-89yqttI-205" edge="1">
          <mxGeometry relative="1" as="geometry" />
        </mxCell>
        <mxCell id="R30zbiC753Ro3uyPxgOw-32" style="edgeStyle=orthogonalEdgeStyle;rounded=0;orthogonalLoop=1;jettySize=auto;html=1;entryX=0;entryY=0.5;entryDx=0;entryDy=0;strokeColor=#006600;dashed=1;dashPattern=1 1;strokeWidth=3;" parent="1" source="R30zbiC753Ro3uyPxgOw-27" target="R30zbiC753Ro3uyPxgOw-31" edge="1">
          <mxGeometry relative="1" as="geometry" />
        </mxCell>
        <mxCell id="R30zbiC753Ro3uyPxgOw-27" value="Obstakels?" style="rhombus;fillColor=#FF8000;strokeColor=none;fontColor=#FFFFFF;" parent="1" vertex="1">
          <mxGeometry x="335.53000000000003" y="680" width="123.57" height="60" as="geometry" />
        </mxCell>
        <mxCell id="R30zbiC753Ro3uyPxgOw-30" value="Nee" style="rounded=0;whiteSpace=wrap;html=1;fillColor=#FF8000;fontColor=#FFFFFF;strokeColor=none;" parent="1" vertex="1">
          <mxGeometry x="338.3" y="740.5" width="39.65917893106119" height="20" as="geometry" />
        </mxCell>
        <mxCell id="R30zbiC753Ro3uyPxgOw-34" style="edgeStyle=orthogonalEdgeStyle;rounded=1;orthogonalLoop=1;jettySize=auto;html=1;exitX=0.5;exitY=1;exitDx=0;exitDy=0;entryX=1;entryY=0.5;entryDx=0;entryDy=0;strokeColor=#006600;endArrow=block;endFill=1;strokeWidth=3;curved=0;" parent="1" source="R30zbiC753Ro3uyPxgOw-31" target="FATbZ32vNFB9-89yqttI-205" edge="1">
          <mxGeometry relative="1" as="geometry" />
        </mxCell>
        <mxCell id="R30zbiC753Ro3uyPxgOw-31" value="Obstakels elimineren" style="whiteSpace=wrap;shadow=0;fontColor=#FFFFFF;fontFamily=Helvetica;fontStyle=0;html=1;fontSize=12;plain-purple;strokeColor=none;fillColor=#006600;gradientColor=none;spacing=6;verticalAlign=middle;" parent="1" vertex="1">
          <mxGeometry x="658.02" y="680" width="118.97753679318359" height="60.5" as="geometry" />
        </mxCell>
        <mxCell id="R30zbiC753Ro3uyPxgOw-33" value="Ja" style="rounded=0;whiteSpace=wrap;html=1;fillColor=#FF8000;fontColor=#FFFFFF;strokeColor=none;" parent="1" vertex="1">
          <mxGeometry x="536.0999999999999" y="700" width="39.65917893106119" height="20" as="geometry" />
        </mxCell>
        <mxCell id="uIb42gDMteSMRHeMFqmk-12" value="&lt;font style=&quot;color: rgb(255, 255, 255);&quot;&gt;&lt;b&gt;SM&lt;/b&gt;&lt;/font&gt;" style="rounded=0;whiteSpace=wrap;html=1;strokeColor=none;fillColor=#003300;" parent="1" vertex="1">
          <mxGeometry x="640" width="160" height="20" as="geometry" />
        </mxCell>
        <mxCell id="zOOwrNDB9zdHeiTFcrTF-15" style="edgeStyle=orthogonalEdgeStyle;rounded=1;orthogonalLoop=1;jettySize=auto;html=1;exitX=0.5;exitY=1;exitDx=0;exitDy=0;strokeWidth=3;strokeColor=#006600;curved=0;endArrow=block;endFill=1;" edge="1" parent="1" source="zOOwrNDB9zdHeiTFcrTF-1">
          <mxGeometry relative="1" as="geometry">
            <mxPoint x="480" y="440" as="targetPoint" />
          </mxGeometry>
        </mxCell>
        <mxCell id="zOOwrNDB9zdHeiTFcrTF-1" value="Identificeren afhankelijkheden tussen teams" style="whiteSpace=wrap;strokeColor=none;fillColor=#FFFF00;shadow=0;fontColor=#000000;fontFamily=Helvetica;fontStyle=0;html=1;fontSize=12;spacing=6;verticalAlign=middle;fillStyle=auto;" vertex="1" parent="1">
          <mxGeometry x="340" y="360" width="280" height="60" as="geometry" />
        </mxCell>
        <mxCell id="zOOwrNDB9zdHeiTFcrTF-11" style="edgeStyle=orthogonalEdgeStyle;rounded=1;orthogonalLoop=1;jettySize=auto;html=1;exitX=0;exitY=0.75;exitDx=0;exitDy=0;entryX=0;entryY=0;entryDx=0;entryDy=0;strokeWidth=3;curved=0;strokeColor=#006600;endArrow=block;endFill=1;" edge="1" parent="1" source="zOOwrNDB9zdHeiTFcrTF-3" target="zOOwrNDB9zdHeiTFcrTF-6">
          <mxGeometry relative="1" as="geometry">
            <Array as="points">
              <mxPoint x="158" y="565" />
              <mxPoint x="158" y="615" />
            </Array>
          </mxGeometry>
        </mxCell>
        <mxCell id="zOOwrNDB9zdHeiTFcrTF-3" value="Backlog items plannen" style="whiteSpace=wrap;strokeColor=none;fillColor=#006600;shadow=0;fontColor=#FFFFFF;fontFamily=Helvetica;fontStyle=0;html=1;fontSize=12;spacing=6;verticalAlign=middle;fillStyle=auto;" vertex="1" parent="1">
          <mxGeometry x="177.67" y="520" width="282.33" height="59.5" as="geometry" />
        </mxCell>
        <mxCell id="zOOwrNDB9zdHeiTFcrTF-12" style="edgeStyle=orthogonalEdgeStyle;rounded=0;orthogonalLoop=1;jettySize=auto;html=1;entryX=1;entryY=0.5;entryDx=0;entryDy=0;dashed=1;dashPattern=1 1;strokeColor=#006600;strokeWidth=3;endArrow=block;endFill=1;" edge="1" parent="1" source="zOOwrNDB9zdHeiTFcrTF-5" target="zOOwrNDB9zdHeiTFcrTF-3">
          <mxGeometry relative="1" as="geometry" />
        </mxCell>
        <mxCell id="zOOwrNDB9zdHeiTFcrTF-5" value="Faciliteren" style="whiteSpace=wrap;shadow=0;fontColor=#FFFFFF;fontFamily=Helvetica;fontStyle=0;html=1;fontSize=12;plain-purple;strokeColor=none;fillColor=#006600;gradientColor=none;spacing=6;verticalAlign=middle;" vertex="1" parent="1">
          <mxGeometry x="658.02" y="519" width="118.97753679318359" height="60.5" as="geometry" />
        </mxCell>
        <mxCell id="zOOwrNDB9zdHeiTFcrTF-13" style="edgeStyle=orthogonalEdgeStyle;rounded=0;orthogonalLoop=1;jettySize=auto;html=1;entryX=0;entryY=0.5;entryDx=0;entryDy=0;strokeWidth=3;dashed=1;dashPattern=1 1;strokeColor=#006600;" edge="1" parent="1" source="zOOwrNDB9zdHeiTFcrTF-6" target="R30zbiC753Ro3uyPxgOw-26">
          <mxGeometry relative="1" as="geometry" />
        </mxCell>
        <mxCell id="zOOwrNDB9zdHeiTFcrTF-6" value="Akkoord?" style="rhombus;fillColor=#FF8000;strokeColor=none;fontColor=#FFFFFF;" vertex="1" parent="1">
          <mxGeometry x="178.22000000000003" y="600" width="123.57" height="60" as="geometry" />
        </mxCell>
        <mxCell id="zOOwrNDB9zdHeiTFcrTF-9" value="Nee" style="rounded=0;whiteSpace=wrap;html=1;fillColor=#FF8000;fontColor=#FFFFFF;strokeColor=none;" vertex="1" parent="1">
          <mxGeometry x="100.84" y="539.25" width="39.65917893106119" height="20" as="geometry" />
        </mxCell>
        <mxCell id="zOOwrNDB9zdHeiTFcrTF-16" value="Ja" style="rounded=0;whiteSpace=wrap;html=1;fillColor=#FF8000;fontColor=#FFFFFF;strokeColor=none;" vertex="1" parent="1">
          <mxGeometry x="298.56" y="600" width="39.65917893106119" height="20" as="geometry" />
        </mxCell>
      </root>
    </mxGraphModel>
  </diagram>
</mxfile>
